<?xml version="1.0" standalone="no"?>
<!DOCTYPE svg PUBLIC "-//W3C//DTD SVG 20010904//EN"
 "http://www.w3.org/TR/2001/REC-SVG-20010904/DTD/svg10.dtd">
<svg version="1.0" xmlns="http://www.w3.org/2000/svg"
 width="176.000000pt" height="176.000000pt" viewBox="0 0 176.000000 176.000000"
 preserveAspectRatio="xMidYMid meet">
<g transform="translate(0.000000,176.000000) scale(0.100000,-0.100000)"
fill="#000000" stroke="none">
<path d="M623 1485 c-54 -15 -148 -58 -157 -73 -3 -5 30 -43 72 -85 61 -61 80
-74 92 -66 13 9 13 10 -1 6 -11 -4 -41 20 -89 68 l-72 73 53 25 c200 97 410
64 564 -87 104 -102 152 -231 141 -376 -3 -41 -8 -86 -11 -100 l-6 -25 12 25
c17 39 23 169 10 233 -38 180 -186 335 -366 382 -72 18 -172 18 -242 0z"/>
<path d="M665 1281 c-11 -5 11 -6 51 -3 41 2 86 0 106 -7 62 -20 127 -69 158
-118 17 -26 30 -42 30 -36 0 17 -57 90 -93 117 -18 14 -53 32 -76 41 -46 16
-142 19 -176 6z"/>
<path d="M640 1225 c0 -6 45 -55 100 -110 l100 -100 0 -125 c0 -69 4 -131 9
-139 12 -19 43 -6 90 39 39 38 81 107 81 132 0 7 -10 -7 -21 -32 -31 -68 -122
-153 -143 -133 -3 4 -6 65 -6 137 l0 131 -105 105 c-58 58 -105 100 -105 95z"/>
<path d="M1023 1030 c0 -25 2 -35 4 -22 2 12 2 32 0 45 -2 12 -4 2 -4 -23z"/>
<path d="M1022 960 c0 -14 2 -19 5 -12 2 6 2 18 0 25 -3 6 -5 1 -5 -13z"/>
<path d="M1177 782 c-29 -59 -77 -118 -137 -164 l-35 -27 160 -161 159 -160
-140 0 -140 0 -202 203 c-111 112 -202 201 -202 197 0 -3 91 -96 203 -208
l202 -202 141 0 c77 0 144 3 148 7 4 4 -64 78 -150 164 l-156 156 63 64 c55
55 129 172 117 185 -2 2 -16 -22 -31 -54z"/>
<path d="M640 541 c0 -4 59 -65 130 -136 l130 -130 -132 -5 -133 -6 138 -2
c75 -1 137 1 137 5 0 4 -61 68 -135 143 -74 75 -135 134 -135 131z"/>
</g>
</svg>
